PathFileType	4	(X/Y/Z)	pose_F01_0-95.trc
DataRate	CameraRate	NumFrames	NumMarkers	Units	OrigDataRate	OrigDataStartFrame	OrigNumFrames
30	30	9	21	m	30	71	95
Frame#	Time	CHip			RHip			RKnee			RAnkle			RBigToe			RSmallToe			RHeel			LHip			LKnee			LAnkle			LBigToe			LSmallToe			LHeel			Neck			Nose			RShoulder			RElbow			RWrist			LShoulder			LElbow			LWrist			
		X1	Y1	Z1	X2	Y2	Z2	X3	Y3	Z3	X4	Y4	Z4	X5	Y5	Z5	X6	Y6	Z6	X7	Y7	Z7	X8	Y8	Z8	X9	Y9	Z9	X10	Y10	Z10	X11	Y11	Z11	X12	Y12	Z12	X13	Y13	Z13	X14	Y14	Z14	X15	Y15	Z15	X16	Y16	Z16	X17	Y17	Z17	X18	Y18	Z18	X19	Y19	Z19	X20	Y20	Z20	X21	Y21	Z21	
71	2.3666666666666667	-0.2531052438333342	1.8833874478513917	-0.4004437462943666	-0.26318118285929887	1.8828232169418537	-0.34318261675585904	-0.2802338182921331	1.7381839179182013	-0.3740128751646125													-0.23726945194771787	1.8844481613855237	-0.458912499095739	-0.23701315194849287	1.7410484887431859	-0.4223399053095656	-0.2253502671904718	1.577989902311958	-0.42598341480450597	-0.23297932310735212	1.561609456226482	-0.49006873929706174	-0.22200524242274813	1.5669494696631225	-0.49817429077490794	-0.22898563538360586	1.5765946659049777	-0.38549589763735126	-0.24082685896357042	2.0454112802819644	-0.4272996766741574	-0.2354916217474246	2.115166180691063	-0.5104834893140329	-0.26200795511031794	2.048481640164321	-0.35111961638704925	-0.27088566619453525	1.9662979871285244	-0.3022511036957177	-0.281987403647018	1.8908131508317825	-0.27988589036689815	-0.21671737415776704	2.0376582074350287	-0.4994374833309202	-0.2369053575439848	1.9764090656938451	-0.5310146460001565	-0.26904619518562195	1.949049337596326	-0.5707467862900831
72	2.4	-0.25049152959021154	1.8896697612616455	-0.3860018538167159	-0.26133348155961444	1.889634390879185	-0.33187236199704595	-0.2802338182921331	1.7381839179182013	-0.3740128751646125													-0.23673469036323974	1.889842939506683	-0.4423730409173673	-0.2371188409558848	1.7412530219377857	-0.41765752581034815	-0.2253502671904718	1.577989902311958	-0.42598341480450597	-0.23297932310735212	1.561609456226482	-0.49006873929706174	-0.22200524242274813	1.5669494696631225	-0.49817429077490794	-0.22898563538360586	1.5765946659049777	-0.38549589763735126	-0.2446320796198861	2.0465264555128817	-0.42277105206088744	-0.24514518433518354	2.1261751303154846	-0.4957718251400189	-0.26290954614616924	2.050188887318388	-0.33172290248035063	-0.271162235203661	1.9659726087647864	-0.28800234744254866	-0.28102004467506025	1.892920362751527	-0.2770154777983316	-0.22243696415936554	2.0418194489315447	-0.5102114769912027	-0.2355164643699834	1.9666929158443494	-0.53373183746439	-0.25585624873468527	1.9051688234107806	-0.5680955114844476
73	2.433333333333333	-0.2517465359718329	1.8835017462589227	-0.37331625398876384	-0.2617342958409372	1.8801252484025248	-0.301481351627293	-0.2802338182921331	1.7381839179182013	-0.3740128751646125													-0.24093156881465147	1.8818829477297951	-0.4309222280471864	-0.2371188409558848	1.7412530219377857	-0.41765752581034815	-0.2253502671904718	1.577989902311958	-0.42598341480450597	-0.23297932310735212	1.561609456226482	-0.49006873929706174	-0.22200524242274813	1.5669494696631225	-0.49817429077490794	-0.22898563538360586	1.5765946659049777	-0.38549589763735126	-0.24926494621516826	2.0459637906601924	-0.41316311514141396	-0.24700127349347012	2.1264992710539086	-0.47676783364110137	-0.2645298460879326	2.0473817101635987	-0.3211159125020458	-0.2702625678887943	1.9627205831805017	-0.2699429776445423	-0.2784587193062397	1.8925642556704454	-0.261565081820547	-0.22633364783037427	2.0415713597938505	-0.5051186405979216	-0.22875109568988747	1.9628858140537269	-0.5205650023636537	-0.24288221530669152	1.894453094623928	-0.535335931403746
74	2.466666666666667	-0.2526788302823026	1.877632269862255	-0.3669983887875861	-0.2635837705944959	1.8756634160972099	-0.29835609025788096	-0.2802338182921331	1.7381839179182013	-0.3740128751646125													-0.2430627322057909	1.8776746669470104	-0.4281724217283508	-0.2371188409558848	1.7412530219377857	-0.41765752581034815	-0.2253502671904718	1.577989902311958	-0.42598341480450597	-0.23297932310735212	1.561609456226482	-0.49006873929706174	-0.22200524242274813	1.5669494696631225	-0.49817429077490794	-0.22898563538360586	1.5765946659049777	-0.38549589763735126	-0.2482117866926331	2.04515381500856	-0.4013985652139304	-0.25267100906282286	2.127344513366997	-0.46189704550374167	-0.2648677105946928	2.044515319000865	-0.3064573084914526	-0.2709313311959771	1.9574889684123429	-0.2634165946948262	-0.2798849940097518	1.8818379957740181	-0.2489587729489852	-0.23127184386236752	2.0414002669227984	-0.4954839937067901	-0.22592386463602793	1.9593137655459112	-0.5019674957824581	-0.23349912241386725	1.8853769892318704	-0.5191768772967486
75	2.5	-0.25813904850985975	1.8781484630020409	-0.3518919986105704	-0.26826728214459156	1.8766044145797989	-0.28916281284435774	-0.2802338182921331	1.7381839179182013	-0.3740128751646125													-0.24707810434326233	1.8799142890527942	-0.4237701435406727	-0.2371188409558848	1.7412530219377857	-0.41765752581034815	-0.2253502671904718	1.577989902311958	-0.42598341480450597	-0.23297932310735212	1.561609456226482	-0.49006873929706174	-0.22200524242274813	1.5669494696631225	-0.49817429077490794	-0.22898563538360586	1.5765946659049777	-0.38549589763735126	-0.25546624807440005	2.0448512304043134	-0.3842691333656559	-0.26132118480580185	2.126194422663133	-0.4483877056636977	-0.27163585694417375	2.0437876200077825	-0.2895968362067723	-0.2751916629952377	1.9584286232295034	-0.25406400739390833	-0.28279010852170394	1.8822666160262234	-0.23600559585395706	-0.23445997559977916	2.0421261057430553	-0.4805151254921492	-0.2326453746888461	1.9565402682573931	-0.48741377765893523	-0.23239127296674394	1.8835864976369212	-0.512573622018655
76	2.533333333333333	-0.2589120242958264	1.8750287159649055	-0.34588428315857905	-0.26995774051968174	1.8724953537024773	-0.2860596748244741	-0.2802338182921331	1.7381839179182013	-0.3740128751646125													-0.2461308971915698	1.8779079581016767	-0.42004443549326237	-0.2371188409558848	1.7412530219377857	-0.41765752581034815	-0.2253502671904718	1.577989902311958	-0.42598341480450597	-0.23297932310735212	1.561609456226482	-0.49006873929706174	-0.22200524242274813	1.5669494696631225	-0.49817429077490794	-0.22898563538360586	1.5765946659049777	-0.38549589763735126	-0.25530020117184976	2.044696316880312	-0.37576981526242453	-0.2669155276228866	2.1261811633140764	-0.4418269661072678	-0.2723410898564368	2.042849876976577	-0.28420516692376463	-0.27393492756742405	1.9526906511913422	-0.2352364753281569	-0.28393950032754056	1.8764191646470265	-0.23230818591016325	-0.23639280590751943	2.044115991661027	-0.4701970232415392	-0.23023105807007718	1.9574439834571609	-0.4798797075145952	-0.22526152937906385	1.8836020726296758	-0.4896989110180256
77	2.566666666666667	-0.2578810066920851	1.8772784679728654	-0.3429843529026728	-0.26893092797752893	1.8764849025200445	-0.2834606406291105	-0.2802338182921331	1.7381839179182013	-0.3740128751646125													-0.2479708346002499	1.8803965560585556	-0.4181881380920802	-0.2371188409558848	1.7412530219377857	-0.41765752581034815	-0.2253502671904718	1.577989902311958	-0.42598341480450597	-0.23297932310735212	1.561609456226482	-0.49006873929706174	-0.22200524242274813	1.5669494696631225	-0.49817429077490794	-0.22898563538360586	1.5765946659049777	-0.38549589763735126	-0.25892668493445986	2.044641809849292	-0.37147820528867753	-0.2698601561669104	2.125560741746797	-0.43460224907036016	-0.27402921493319116	2.04401900033852	-0.2819895100710554	-0.2734182785429213	1.9561610172001203	-0.22746394115035748	-0.28251458926466666	1.8776940210543753	-0.22036322527487862	-0.23929646157053064	2.045072822769924	-0.46261696453779516	-0.23305904762234317	1.9630810472144784	-0.4725615865665509	-0.22601955402772936	1.8876689019767938	-0.48368806188385427
78	2.6	-0.2597853405184635	1.8783902828099452	-0.34101439022460395	-0.26972159173777727	1.8779686454678541	-0.27812914724338633	-0.2802338182921331	1.7381839179182013	-0.3740128751646125													-0.24882240406981979	1.8826791132586622	-0.41323951806388515	-0.2371188409558848	1.7412530219377857	-0.41765752581034815	-0.2253502671904718	1.577989902311958	-0.42598341480450597	-0.23297932310735212	1.561609456226482	-0.49006873929706174	-0.22200524242274813	1.5669494696631225	-0.49817429077490794	-0.22898563538360586	1.5765946659049777	-0.38549589763735126	-0.25972875995551925	2.044485109338837	-0.3661688118194934	-0.2707407390575003	2.1250687128628263	-0.4294455756951689	-0.276451584996859	2.0438146760543674	-0.27463280217832353	-0.275297751268259	1.9549714146974817	-0.22510782067109336	-0.283181250227659	1.8799599329031496	-0.20716905468787913	-0.2402573625129951	2.0449283876623827	-0.457269630872327	-0.23609155009266192	1.9640400220481329	-0.4740002609572801	-0.23020688894914443	1.8898817326290867	-0.47989732828930964
79	2.6333333333333333	-0.2594383187669099	1.8795633212362808	-0.34099915721464263	-0.27110840326950114	1.8788751035907476	-0.2760836081738361	-0.2802338182921331	1.7381839179182013	-0.3740128751646125													-0.24860907744512356	1.8826182014588067	-0.4131270341741584	-0.2371188409558848	1.7412530219377857	-0.41765752581034815	-0.2253502671904718	1.577989902311958	-0.42598341480450597	-0.23297932310735212	1.561609456226482	-0.49006873929706174	-0.22200524242274813	1.5669494696631225	-0.49817429077490794	-0.22898563538360586	1.5765946659049777	-0.38549589763735126	-0.25981345489531066	2.044402738175597	-0.3660700863934548	-0.2697877728585093	2.123857694012238	-0.4264466147936817	-0.27829114499141083	2.0426431284458477	-0.2725786391075128	-0.2765959992310239	1.9544569389433861	-0.22215818856411848	-0.28720793738984063	1.8753610783404213	-0.19913341223477576	-0.2421235040996484	2.0448275328523353	-0.455209253432184	-0.2391240525629807	1.9649989968817871	-0.47543893534800924	-0.23439422387055947	1.8920945632813797	-0.476106594694765
